<svg width="32" height="32" viewBox="0 0 32 32" fill="none" xmlns="http://www.w3.org/2000/svg">
    <path opacity="0.5" d="M16 2.66666C13.3629 2.66666 10.7851 3.44864 8.59242 4.91373C6.39977 6.37881 4.6908 8.4612 3.68163 10.8975C2.67246 13.3339 2.40842 16.0148 2.92289 18.6012C3.43736 21.1876 4.70724 23.5634 6.57194 25.4281C8.43664 27.2928 10.8124 28.5627 13.3988 29.0771C15.9852 29.5916 18.6661 29.3276 21.1025 28.3184C23.5388 27.3092 25.6212 25.6002 27.0863 23.4076C28.5514 21.2149 29.3334 18.6371 29.3334 16C29.3334 14.249 28.9885 12.5152 28.3184 10.8975C27.6484 9.27987 26.6662 7.81001 25.4281 6.5719C24.19 5.33379 22.7201 4.35166 21.1025 3.6816C19.4848 3.01153 17.751 2.66666 16 2.66666ZM16 26.6667C13.8904 26.6667 11.8281 26.0411 10.0739 24.869C8.31982 23.6969 6.95265 22.031 6.14531 20.0819C5.33798 18.1329 5.12674 15.9882 5.53832 13.919C5.94989 11.8499 6.96579 9.94928 8.45755 8.45752C9.94931 6.96576 11.8499 5.94986 13.9191 5.53828C15.9882 5.1267 18.1329 5.33794 20.082 6.14528C22.0311 6.95261 23.697 8.31978 24.869 10.0739C26.0411 11.828 26.6667 13.8903 26.6667 16C26.6667 18.829 25.5429 21.5421 23.5425 23.5425C21.5421 25.5429 18.829 26.6667 16 26.6667Z" fill="#FFF"/>
    <path d="M26.6667 16H29.3333C29.3333 14.249 28.9885 12.5152 28.3184 10.8975C27.6483 9.27987 26.6662 7.81001 25.4281 6.5719C24.19 5.33379 22.7201 4.35166 21.1024 3.6816C19.4848 3.01153 17.751 2.66666 16 2.66666V5.33332C18.829 5.33332 21.5421 6.45713 23.5425 8.45752C25.5429 10.4579 26.6667 13.171 26.6667 16Z" fill="#D80032"/>
</svg>
