<svg width="48" height="48" viewBox="0 0 48 48" fill="none" xmlns="http://www.w3.org/2000/svg">
<path d="M41.68 4.35999L33.82 5.91999L39.3 13L43.24 12.2L41.68 4.35999ZM27.94 7.07999L24 7.85999L29.5 14.92L33.42 14.14L27.94 7.07999ZM18.14 8.99999L14.2 9.81998L19.7 16.88L23.62 16.1L18.14 8.99999ZM8.31999 11L6.35999 11.38C5.32075 11.5876 4.40639 12.1992 3.81767 13.0804C3.22895 13.9616 3.01399 15.0404 3.21999 16.08L3.99999 20L13.8 18.06L8.31999 11ZM3.99999 20V40C3.99999 41.0609 4.42142 42.0783 5.17156 42.8284C5.92171 43.5786 6.93912 44 7.99999 44H40C42.22 44 44 42.22 44 40V20H3.99999Z" fill="#EDF2F4"/>
</svg>
