<svg width="16" height="16" viewBox="0 0 16 16" fill="none" xmlns="http://www.w3.org/2000/svg">
    <g clip-path="url(#clip0_1_76)">
        <path fill-rule="evenodd" clip-rule="evenodd" d="M6 3.33333C6 2.97971 6.14048 2.64057 6.39052 2.39052C6.64057 2.14048 6.97971 2 7.33333 2H8.66667C9.02029 2 9.35943 2.14048 9.60948 2.39052C9.85952 2.64057 10 2.97971 10 3.33333V6H12.6667C13.0203 6 13.3594 6.14048 13.6095 6.39052C13.8595 6.64057 14 6.97971 14 7.33333V8.66667C14 9.02029 13.8595 9.35943 13.6095 9.60948C13.3594 9.85952 13.0203 10 12.6667 10H10V12.6667C10 13.0203 9.85952 13.3594 9.60948 13.6095C9.35943 13.8595 9.02029 14 8.66667 14H7.33333C6.97971 14 6.64057 13.8595 6.39052 13.6095C6.14048 13.3594 6 13.0203 6 12.6667V10H3.33333C2.97971 10 2.64057 9.85952 2.39052 9.60948C2.14048 9.35943 2 9.02029 2 8.66667V7.33333C2 6.97971 2.14048 6.64057 2.39052 6.39052C2.64057 6.14048 2.97971 6 3.33333 6H6V3.33333Z" fill="#EDF2F4"/>
    </g>
    <defs>
        <clipPath id="clip0_1_76">
            <rect width="16" height="16" fill="white"/>
        </clipPath>
    </defs>
</svg>
