<svg width="24" height="24" viewBox="0 0 24 24" fill="none" xmlns="http://www.w3.org/2000/svg">
<path d="M21 21L16.657 16.657M16.657 16.657C17.3999 15.9141 17.9892 15.0322 18.3912 14.0615C18.7933 13.0909 19.0002 12.0506 19.0002 11C19.0002 9.94939 18.7933 8.90908 18.3913 7.93845C17.9892 6.96782 17.3999 6.08588 16.657 5.34299C15.9141 4.6001 15.0322 4.01081 14.0616 3.60877C13.0909 3.20672 12.0506 2.99979 11 2.99979C9.94942 2.99979 8.90911 3.20672 7.93848 3.60877C6.96785 4.01081 6.08591 4.6001 5.34302 5.34299C3.84269 6.84332 2.99982 8.87821 2.99982 11C2.99982 13.1218 3.84269 15.1567 5.34302 16.657C6.84335 18.1573 8.87824 19.0002 11 19.0002C13.1218 19.0002 15.1567 18.1573 16.657 16.657Z" stroke="#EDF2F4" stroke-width="2.08333" stroke-linecap="round" stroke-linejoin="round"/>
</svg>
